# xmcd
#
# Track frame offsets: 
#        150
#        14922
#        29280
#        44457
#        62561
#        79247
#        96338
#        110622
#        129314
#        143794
#        161280
#        176046
#        189478
#        206094
#        220427
#
# Disc length: 3142 seconds
#
# Revision: 0
# Processed by: cddbd v1.5.2PL0 Copyright (c) Steve Scherf et al.
# Submitted via: ExactAudioCopy v1.3
#
DISCID=dc0c440f
DTITLE=Various Artist - Nashville Greatest Hits seasons 1-5
DYEAR=2017
DGENRE=Country
TTITLE0=Lennon and Maisy - Telescope
TTITLE1=Connie Britton, Hayden Panettiere - Wrong Song
TTITLE2=Lennon and Maisy - A Life That’s Good
TTITLE3=Hayden Panettiere, Charles Esten - Undermine
TTITLE4=Clare Bowen - Black Roses
TTITLE5=Connie Britton, Charles Esten - No One Will Ever Love You
TTITLE6=Lennon and Maisy - Joy Parade
TTITLE7=Clare Bowen, Sam Palladio - Change Your Mind
TTITLE8=Hayden Panettiere - Hypnotizing
TTITLE9=Connie Britton - Stronger Than Me
TTITLE10=Charles Esten, Lennon and Maisy - Believing
TTITLE11=Sam Palladio, Clare Bowen - If I Didn’t Know Better
TTITLE12=Lennon Stella, Jessy Schram - Swept Away
TTITLE13=Hayden Panettiere - Don’t Put Dirt On My Grave Just Yet
TTITLE14=Clare Bowen, Sam Palladio - Loving You Is The Only Way To Fly
EXTD=
EXTT0=
EXTT1=
EXTT2=
EXTT3=
EXTT4=
EXTT5=
EXTT6=
EXTT7=
EXTT8=
EXTT9=
EXTT10=
EXTT11=
EXTT12=
EXTT13=
EXTT14=
PLAYORDER=
